<svg width="41" height="41" viewBox="0 0 41 41" fill="none" xmlns="http://www.w3.org/2000/svg">
<path d="M39.9291 25.6451C38.6617 29.7823 36.1217 33.4145 32.6706 36.0247C29.6406 38.3051 26.035 39.696 22.2585 40.0411C18.4819 40.3862 14.684 39.6719 11.2908 37.9784C7.89769 36.2849 5.04372 33.6792 3.04923 30.4538C1.05474 27.2284 -0.00131068 23.5109 -0.00039227 19.7186C-0.0140271 15.2922 1.42494 10.9836 4.09574 7.45374C6.70593 4.00261 10.3381 1.46264 14.4754 0.195258C14.748 0.111295 15.0385 0.103255 15.3154 0.172002C15.5923 0.24075 15.8452 0.383683 16.0469 0.58543C16.2487 0.787177 16.3916 1.04011 16.4604 1.31701C16.5291 1.59392 16.5211 1.88433 16.4371 2.15701C15.5324 5.14952 15.4566 8.33141 16.2176 11.3636C16.9787 14.3959 18.5481 17.1648 20.7588 19.3754C22.9694 21.586 25.7383 23.1555 28.7705 23.9165C31.8027 24.6776 34.9846 24.6017 37.9771 23.697C38.2498 23.6131 38.5402 23.605 38.8171 23.6738C39.094 23.7425 39.347 23.8855 39.5487 24.0872C39.7505 24.289 39.8934 24.5419 39.9622 24.8188C40.0309 25.0957 40.0229 25.3861 39.9389 25.6588L39.9291 25.6451Z" fill="#A2A2A2"/>
</svg>
