<svg width="40" height="40" viewBox="0 0 40 40" fill="none" xmlns="http://www.w3.org/2000/svg">
<path d="M19.9989 34.0019C20.4888 34.0019 20.9616 34.1818 21.3277 34.5073C21.6938 34.8329 21.9277 35.2815 21.985 35.768L21.999 36.002V38.0021C21.9984 38.5119 21.8032 39.0022 21.4533 39.3729C21.1033 39.7436 20.625 39.9667 20.1161 39.9966C19.6072 40.0264 19.1061 39.8609 18.7152 39.5337C18.3242 39.2065 18.073 38.7423 18.0128 38.2361L17.9988 38.0021V36.002C17.9988 35.4715 18.2095 34.9628 18.5846 34.5877C18.9597 34.2126 19.4684 34.0019 19.9989 34.0019ZM32.6256 29.8217L32.8136 29.9877L34.2137 31.3877C34.5724 31.7477 34.7807 32.2307 34.7962 32.7386C34.8117 33.2465 34.6333 33.7413 34.2972 34.1224C33.9611 34.5036 33.4925 34.7425 32.9867 34.7907C32.4808 34.8389 31.9755 34.6927 31.5735 34.3819L31.3855 34.2159L29.9854 32.8158C29.6403 32.4713 29.4329 32.0125 29.4023 31.5258C29.3717 31.039 29.52 30.5579 29.8193 30.1728C30.1186 29.7878 30.5483 29.5253 31.0275 29.4349C31.5068 29.3444 32.0025 29.4322 32.4216 29.6816L32.6256 29.8217ZM10.0123 29.9877C10.3567 30.3321 10.5636 30.7903 10.5942 31.2764C10.6247 31.7625 10.4769 32.243 10.1784 32.6278L10.0123 32.8158L8.61226 34.2159C8.25233 34.5746 7.76935 34.7829 7.26142 34.7984C6.75349 34.8139 6.25871 34.6355 5.87755 34.2994C5.4964 33.9633 5.25747 33.4948 5.20928 32.9889C5.16109 32.483 5.30726 31.9778 5.6181 31.5758L5.78411 31.3877L7.18418 29.9877C7.55926 29.6127 8.0679 29.4021 8.59826 29.4021C9.12862 29.4021 9.63726 29.6127 10.0123 29.9877ZM3.99801 18.001C4.50779 18.0016 4.99813 18.1968 5.36882 18.5467C5.73951 18.8967 5.96258 19.375 5.99246 19.8839C6.02234 20.3928 5.85676 20.8939 5.52956 21.2848C5.20236 21.6758 4.73824 21.927 4.23202 21.9872L3.99801 22.0012H1.9979C1.48811 22.0007 0.997775 21.8055 0.627083 21.4555C0.25639 21.1055 0.0333162 20.6272 0.00344026 20.1183C-0.0264356 19.6094 0.139141 19.1083 0.46634 18.7174C0.793539 18.3264 1.25766 18.0752 1.76388 18.015L1.9979 18.001H3.99801ZM37.9999 18.001C38.5097 18.0016 39 18.1968 39.3707 18.5467C39.7414 18.8967 39.9645 19.375 39.9943 19.8839C40.0242 20.3928 39.8586 20.8939 39.5315 21.2848C39.2043 21.6758 38.7401 21.927 38.2339 21.9872L37.9999 22.0012H35.9998C35.49 22.0007 34.9997 21.8055 34.629 21.4555C34.2583 21.1055 34.0352 20.6272 34.0053 20.1183C33.9755 19.6094 34.141 19.1083 34.4682 18.7174C34.7954 18.3264 35.2595 18.0752 35.7658 18.015L35.9998 18.001H37.9999ZM8.42425 5.62031L8.61226 5.78632L10.0123 7.1864C10.3711 7.54633 10.5793 8.02931 10.5948 8.53724C10.6103 9.04517 10.4319 9.53996 10.0958 9.92111C9.75976 10.3023 9.2912 10.5412 8.78532 10.5894C8.27945 10.6376 7.7742 10.4914 7.37219 10.1806L7.18418 10.0146L5.78411 8.61448C5.44027 8.26982 5.23394 7.81158 5.20381 7.32567C5.17367 6.83976 5.3218 6.35954 5.62042 5.97504C5.91904 5.59054 6.34765 5.32815 6.8259 5.23707C7.30415 5.14599 7.7992 5.23248 8.21824 5.4803L8.42425 5.62031ZM34.2137 5.78632C34.5581 6.13073 34.7649 6.58895 34.7955 7.07503C34.8261 7.56111 34.6782 8.04164 34.3797 8.42647L34.2137 8.61448L32.8136 10.0146C32.4537 10.3733 31.9707 10.5815 31.4628 10.597C30.9548 10.6126 30.46 10.4341 30.0789 10.0981C29.6977 9.76198 29.4588 9.29341 29.4106 8.78754C29.3624 8.28166 29.5086 7.77641 29.8194 7.37441L29.9854 7.1864L31.3855 5.78632C31.7606 5.41136 32.2692 5.20072 32.7996 5.20072C33.33 5.20072 33.8386 5.41136 34.2137 5.78632ZM19.9989 0C20.4888 6.46247e-05 20.9616 0.179922 21.3277 0.505459C21.6938 0.830995 21.9277 1.27957 21.985 1.7661L21.999 2.00011V4.00022C21.9984 4.51001 21.8032 5.00034 21.4533 5.37103C21.1033 5.74173 20.625 5.9648 20.1161 5.99468C19.6072 6.02455 19.1061 5.85898 18.7152 5.53178C18.3242 5.20458 18.073 4.74045 18.0128 4.23423L17.9988 4.00022V2.00011C17.9988 1.46965 18.2095 0.960912 18.5846 0.585819C18.9597 0.210725 19.4684 0 19.9989 0ZM19.9989 10.0006C21.9584 10.0004 23.8747 10.576 25.5099 11.6556C27.145 12.7353 28.427 14.2716 29.1965 16.0736C29.9661 17.8756 30.1893 19.864 29.8384 21.7918C29.4875 23.7196 28.5781 25.5019 27.223 26.9172C25.8678 28.3325 24.1268 29.3186 22.2161 29.7529C20.3054 30.1872 18.3091 30.0507 16.4754 29.3602C14.6416 28.6697 13.0511 27.4557 11.9014 25.869C10.7516 24.2823 10.0934 22.3927 10.0083 20.4351L9.99834 20.0011L10.0083 19.5671C10.1202 16.9924 11.2216 14.5604 13.083 12.778C14.9443 10.9957 17.4218 10.0007 19.9989 10.0006Z" fill="#C5B739"/>
</svg>
